<svg xmlns="http://www.w3.org/2000/svg" viewBox="0 0 512 512">
  <rect width="512" height="512" fill="#ffffff"/>
  <g transform="translate(111,111) scale(12.08)" fill="#e82127">
    <path d="M12 5.362l2.475-3.026s4.245.09 8.471 2.054c-1.082 1.636-3.231 2.438-3.231 2.438-.146-1.439-1.154-1.79-1.154-1.79L12 24 5.439 5.038s-1.008.351-1.154 1.79c0 0-2.149-.802-3.231-2.438C5.28 2.426 9.525 2.336 9.525 2.336L12 5.362z"/>
    <path d="M12 .79c3.415-.027 7.325.529 11.328 2.273.535-.96.672-1.384.672-1.384C19.625.69 15.27.029 12 0 8.73.029 4.375.69.001 1.679c0 0 .195.494.671 1.384C4.676 1.318 8.585.763 12 .79z"/>
  </g>
</svg>
